HIERARCHY
ROOT Hips
{
	OFFSET -0.001795 -0.223333 0.028219
	CHANNELS 6 Xposition Yposition Zposition Zrotation Yrotation Xrotation 
	JOINT LeftUpLeg
	{
		OFFSET 0.069520 -0.091406 -0.006815
		CHANNELS 3 Zrotation Yrotation Xrotation
		JOINT LeftLeg
		{
			OFFSET 0.034277 -0.375199 -0.004496
			CHANNELS 3 Zrotation Yrotation Xrotation
			JOINT LeftFoot
			{
				OFFSET -0.013596 -0.397961 -0.043693
				CHANNELS 3 Zrotation Yrotation Xrotation
				JOINT LeftToe
				{
					OFFSET 0.026358 -0.055791 0.119288
					CHANNELS 3 Zrotation Yrotation Xrotation
					End Site
					{
						OFFSET 0.000000 0.000000 0.000000
					}
				}
			}
		}
	}
	JOINT RightUpLeg
	{
		OFFSET -0.067670 -0.090522 -0.004320
		CHANNELS 3 Zrotation Yrotation Xrotation
		JOINT RightLeg
		{
			OFFSET -0.038290 -0.382569 -0.008850
			CHANNELS 3 Zrotation Yrotation Xrotation
			JOINT RightFoot
			{
				OFFSET 0.015774 -0.398415 -0.042312
				CHANNELS 3 Zrotation Yrotation Xrotation
				JOINT RightToe
				{
					OFFSET -0.025372 -0.048144 0.123348
					CHANNELS 3 Zrotation Yrotation Xrotation
					End Site
					{
						OFFSET 0.000000 0.000000 0.000000
					}
				}
			}
		}
	}
	JOINT Spine
	{
		OFFSET -0.002533 0.108963 -0.026696
		CHANNELS 3 Zrotation Yrotation Xrotation
		JOINT Spine1
		{
			OFFSET 0.005487 0.135180 0.001092
			CHANNELS 3 Zrotation Yrotation Xrotation
			JOINT Spine2
			{
				OFFSET 0.001457 0.052922 0.025425
				CHANNELS 3 Zrotation Yrotation Xrotation
				JOINT Neck
				{
					OFFSET -0.002778 0.213870 -0.042857
					CHANNELS 3 Zrotation Yrotation Xrotation
					JOINT Head
					{
						OFFSET 0.005152 0.064970 0.051349
						CHANNELS 3 Zrotation Yrotation Xrotation
						End Site
						{
							OFFSET 0.000000 0.000000 0.000000
						}
					}
				}
				JOINT LeftShoulder
				{
					OFFSET 0.078845 0.121749 -0.034090
					CHANNELS 3 Zrotation Yrotation Xrotation
					JOINT LeftArm
					{
						OFFSET 0.090977 0.030469 -0.008868
						CHANNELS 3 Zrotation Yrotation Xrotation
						JOINT LeftForeArm
						{
							OFFSET 0.259612 -0.012772 -0.027456
							CHANNELS 3 Zrotation Yrotation Xrotation
							JOINT LeftHand
							{
								OFFSET 0.249234 0.008986 -0.001171
								CHANNELS 3 Zrotation Yrotation Xrotation
								End Site
								{
									OFFSET 0.000000 0.000000 0.000000
								}
							}
						}
					}
				}
				JOINT RightShoulder
				{
					OFFSET -0.081759 0.118833 -0.038615
					CHANNELS 3 Zrotation Yrotation Xrotation
					JOINT RightArm
					{
						OFFSET -0.096012 0.032551 -0.009143
						CHANNELS 3 Zrotation Yrotation Xrotation
						JOINT RightForeArm
						{
							OFFSET -0.253742 -0.013329 -0.021401
							CHANNELS 3 Zrotation Yrotation Xrotation
							JOINT RightHand
							{
								OFFSET -0.255298 0.007772 -0.005559
								CHANNELS 3 Zrotation Yrotation Xrotation
								End Site
								{
									OFFSET 0.000000 0.000000 0.000000
								}
							}
						}
					}
				}
			}
		}
	}
}
MOTION
Frames: 18
Frame Time: 0.050000
0.000000 0.935522 0.000000 0.887408 -6.814068 2.486534 7.794708 -0.050955 -1.796148 -5.454311 0.929536 9.631028 10.502056 20.398972 20.196729 0.000000 0.000000 0.000000 -0.212117 1.552061 -14.871174 5.939300 -0.540489 12.462016 -0.811208 -5.496020 6.888255 0.000000 0.000000 0.000000 8.157141 -0.881212 7.187373 -1.572470 0.769843 0.909480 -4.513939 -1.949305 1.073327 8.490070 -4.101877 -16.837292 0.000000 0.000000 0.000000 -31.662365 -17.541432 10.826100 -36.542019 -23.038353 1.898476 -14.502306 -46.865858 8.569530 0.000000 0.000000 0.000000 22.499207 8.479994 1.202827 46.737050 12.466327 0.925404 20.560761 57.003806 11.880080 0.000000 0.000000 0.000000 
0.004030 0.939013 -0.005594 0.204790 -5.623441 4.394545 9.939789 -0.089271 -2.819493 -6.589072 1.129488 9.510202 5.410558 12.977579 13.521550 0.000000 0.000000 0.000000 -0.713127 1.760818 -17.289776 7.419265 -0.873737 12.341027 -0.946939 -6.650011 9.402732 0.000000 0.000000 0.000000 9.843501 -0.863376 5.406462 -2.215894 1.107247 2.579174 -5.205163 -2.004342 -0.472762 9.103967 -4.139013 -17.795495 0.000000 0.000000 0.000000 -32.127592 -16.495316 9.722078 -34.784818 -24.327286 2.295716 -18.968141 -50.967228 11.557289 0.000000 0.000000 0.000000 18.288400 8.501822 1.706793 49.180758 12.175822 0.880331 21.894878 59.586479 13.367427 0.000000 0.000000 0.000000 
0.009855 0.938859 -0.013762 -0.221754 -5.462363 4.503017 11.135227 -0.078450 -0.260685 -7.396160 1.236028 8.217335 2.489352 6.432419 4.285955 0.000000 0.000000 0.000000 0.021417 1.966597 -18.365908 6.289838 -0.659848 13.140098 -1.020733 -6.970189 9.911734 0.000000 0.000000 0.000000 10.553339 -0.873319 5.109752 -3.032855 1.446276 -0.023512 -4.653112 0.113821 2.681824 8.972280 -3.744496 -19.747784 0.000000 0.000000 0.000000 -30.315922 -18.820700 10.453955 -34.441526 -24.497735 2.314479 -17.169328 -55.262381 11.584755 0.000000 0.000000 0.000000 18.349367 7.529790 1.788179 47.690706 14.437549 1.262237 21.155623 62.219019 14.446329 0.000000 0.000000 0.000000 
0.017459 0.936956 -0.025541 -0.103104 -5.775132 4.962893 12.133431 -0.099613 2.134001 -10.303002 1.895665 8.972811 3.365719 6.394105 -3.352942 0.000000 0.000000 0.000000 -0.242628 2.187160 -20.421040 5.687807 -0.516742 14.367048 -0.992753 -7.055792 10.170377 0.000000 0.000000 0.000000 10.510407 -0.868186 5.008299 -2.501112 1.168497 -1.290386 -5.586947 0.750522 2.990891 9.666471 -3.396147 -23.803912 0.000000 0.000000 0.000000 -30.242651 -17.826641 9.510737 -33.280876 -25.973550 2.614161 -17.950709 -56.828909 12.363579 0.000000 0.000000 0.000000 17.042029 8.363277 2.442237 46.937769 15.757381 1.663122 25.373568 66.212532 18.645923 0.000000 0.000000 0.000000 
0.026972 0.933019 -0.041043 -0.143291 -5.479730 4.736439 12.216632 -0.125233 4.795581 -10.992128 2.175459 10.809326 6.511327 13.722867 -0.885168 0.000000 0.000000 0.000000 -0.866231 2.278164 -22.010894 5.843364 -0.556399 15.684452 -1.250248 -7.569240 10.290012 0.000000 0.000000 0.000000 10.331877 -0.936258 5.670493 -2.908720 1.329784 -2.618083 -5.095649 0.559763 4.151434 10.141766 -3.626885 -24.364279 0.000000 0.000000 0.000000 -29.014004 -18.273510 9.829093 -32.115749 -26.775745 2.560179 -14.945609 -59.760066 11.437997 0.000000 0.000000 0.000000 17.326353 10.273181 3.411749 45.511775 17.670722 2.199999 24.050137 68.652211 18.626067 0.000000 0.000000 0.000000 
0.038582 0.928608 -0.058855 -0.250203 -4.342872 4.845477 12.631055 -0.220750 7.038034 -12.078281 2.509537 12.483870 11.098312 22.180493 8.673583 0.000000 0.000000 0.000000 -1.378136 2.349711 -23.770747 5.502737 -0.526194 16.501041 -1.822697 -8.660223 10.619297 0.000000 0.000000 0.000000 10.149418 -0.873168 5.132508 -3.111799 1.426383 -2.716246 -4.834436 1.888705 4.590830 10.055764 -3.212698 -25.436894 0.000000 0.000000 0.000000 -28.472824 -19.651763 9.912275 -31.865658 -27.055746 2.791450 -14.537222 -60.997830 11.190568 0.000000 0.000000 0.000000 18.304354 10.676030 4.159001 44.051157 18.827259 2.324324 27.226686 72.756221 23.270837 0.000000 0.000000 0.000000 
0.052662 0.924878 -0.079195 -0.819220 -2.944461 4.921651 13.055436 -0.350694 8.809844 -12.872253 2.697639 13.407756 16.189521 27.351451 25.177988 0.000000 0.000000 0.000000 -2.213540 2.330353 -25.669004 6.144122 -0.754173 17.320079 -2.355257 -9.883036 12.024384 0.000000 0.000000 0.000000 10.175041 -0.839548 4.709467 -3.000659 1.383140 -2.800124 -4.803391 2.451266 4.272941 10.575333 -3.283122 -25.593417 0.000000 0.000000 0.000000 -27.840388 -19.274645 8.986458 -33.117684 -25.794407 2.827095 -17.012055 -62.915149 12.883680 0.000000 0.000000 0.000000 20.152038 9.997617 4.225617 43.355349 19.548833 2.408615 35.801450 75.044628 31.609727 0.000000 0.000000 0.000000 
0.069963 0.920248 -0.103459 -0.927019 -1.701346 4.440995 12.350591 -0.367384 11.012129 -13.108949 2.627623 12.952318 16.922223 27.492829 30.475756 0.000000 0.000000 0.000000 -4.022241 1.952392 -26.163112 7.245871 -1.082087 16.252013 -2.748906 -10.729910 13.320353 0.000000 0.000000 0.000000 9.628013 -0.700000 3.887988 -3.517360 1.629237 -2.455361 -4.049514 3.126998 4.869550 10.443831 -3.077107 -25.766793 0.000000 0.000000 0.000000 -25.684830 -19.443012 8.419951 -34.880646 -25.072665 2.943762 -18.597609 -65.295670 14.230903 0.000000 0.000000 0.000000 22.010256 9.967096 4.710398 43.320554 20.776039 2.622735 39.957445 76.435320 36.430499 0.000000 0.000000 0.000000 
0.090640 0.915349 -0.134143 -1.335087 1.392745 3.430891 12.042878 -0.498362 11.805678 -11.903036 2.099907 12.067573 14.782172 25.766498 26.409802 0.000000 0.000000 0.000000 -5.207350 1.524025 -26.580549 6.828340 -1.128836 15.898447 -3.814460 -12.559611 15.597843 0.000000 0.000000 0.000000 9.511648 -0.650888 3.585747 -3.569589 1.675728 -2.050648 -3.764207 2.719507 4.560604 10.046431 -2.852045 -25.039092 0.000000 0.000000 0.000000 -26.381851 -19.569214 7.994254 -35.154133 -23.088090 2.630846 -22.739848 -66.530232 16.968170 0.000000 0.000000 0.000000 23.982816 10.565893 5.649069 42.709557 21.074100 2.484651 38.085103 76.967359 35.706489 0.000000 0.000000 0.000000 
0.113932 0.907992 -0.172541 -1.747388 3.610032 2.387688 10.835406 -0.453841 12.505272 -10.164363 1.504650 9.653679 14.785115 26.452468 19.396487 0.000000 0.000000 0.000000 -6.766632 1.000129 -25.960188 6.663210 -1.099830 12.873236 -4.432131 -13.557530 18.321538 0.000000 0.000000 0.000000 9.842478 -0.748815 4.302770 -4.108419 1.930195 -2.599382 -3.939790 4.359292 5.985872 10.914265 -2.939717 -25.466745 0.000000 0.000000 0.000000 -25.867751 -21.898177 8.303319 -34.791192 -22.367087 2.640273 -21.310925 -67.885028 15.713375 0.000000 0.000000 0.000000 27.327145 8.989482 6.156793 40.505570 22.278277 2.021578 40.697930 78.494361 40.152255 0.000000 0.000000 0.000000 
0.136574 0.903263 -0.216882 -1.004561 6.375827 0.984759 9.688985 -0.391963 11.557703 -10.291952 1.371496 8.748240 14.033552 25.944396 12.979561 0.000000 0.000000 0.000000 -8.090852 0.470050 -24.748724 4.753437 -0.680063 9.263208 -5.508775 -14.950018 20.497675 0.000000 0.000000 0.000000 8.533113 -0.802466 5.595945 -4.804746 2.263080 -2.318426 -3.083300 5.133445 6.605450 11.741920 -3.065855 -25.945573 0.000000 0.000000 0.000000 -26.636066 -22.791097 8.048054 -33.633321 -20.674187 2.316067 -24.755122 -68.382782 17.767438 0.000000 0.000000 0.000000 28.745074 8.429387 6.817722 38.637604 22.602807 1.530932 42.121881 78.910416 42.298871 0.000000 0.000000 0.000000 
0.155197 0.903746 -0.261397 -0.502047 8.308225 -0.029959 8.379441 -0.264699 10.018404 -10.453812 1.288071 8.052773 13.618972 25.489263 8.729450 0.000000 0.000000 0.000000 -9.693321 -0.042943 -23.943149 4.748754 -0.661542 5.786262 -6.443228 -16.093169 21.842734 0.000000 0.000000 0.000000 7.478379 -0.802859 6.387099 -5.254069 2.480715 -0.636698 -2.420750 6.638432 7.072113 10.427861 -2.176606 -25.531376 0.000000 0.000000 0.000000 -26.699481 -23.146229 7.289261 -33.172251 -18.651826 2.016428 -30.410029 -68.817276 21.307578 0.000000 0.000000 0.000000 29.372614 7.318056 7.143089 38.771238 22.412930 1.109101 32.808172 79.070132 35.207337 0.000000 0.000000 0.000000 
0.167579 0.911869 -0.301437 -0.019016 10.417370 -0.338994 6.651515 -0.121579 7.971740 -9.442541 1.015431 6.656862 13.132429 24.677432 8.854094 0.000000 0.000000 0.000000 -10.564774 -0.411058 -23.734819 5.205938 -0.783524 5.796384 -7.141376 -16.809670 20.387754 0.000000 0.000000 0.000000 6.618187 -0.776588 6.701024 -5.323146 2.510302 -1.090121 -2.075796 6.642671 8.071602 10.007836 -2.035020 -24.483954 0.000000 0.000000 0.000000 -28.224135 -21.380487 5.683880 -31.940316 -15.340538 1.261920 -37.426951 -67.305228 25.481387 0.000000 0.000000 0.000000 30.064211 7.187237 7.651406 39.342964 20.723207 0.378317 35.193066 77.323047 36.487331 0.000000 0.000000 0.000000 
0.174529 0.923485 -0.336078 -0.875652 13.460246 -0.842863 6.173815 -0.163323 6.062963 -7.528349 0.674929 5.965223 11.508712 22.250322 8.684247 0.000000 0.000000 0.000000 -8.313072 -0.107367 -23.062236 5.263682 -1.113997 12.387214 -5.845682 -14.224927 12.348184 0.000000 0.000000 0.000000 6.543098 -0.795960 6.810775 -4.885736 2.311340 -1.232198 -2.228717 6.989540 8.582324 8.487137 -1.093067 -23.675335 0.000000 0.000000 0.000000 -27.629565 -20.092574 4.003125 -31.754361 -12.786439 0.832077 -41.310987 -66.451490 27.257912 0.000000 0.000000 0.000000 30.435521 6.085958 7.798288 40.723714 19.177822 -0.298590 32.365352 74.075718 32.823848 0.000000 0.000000 0.000000 
0.177868 0.933666 -0.366327 -1.329167 16.996316 -0.548388 5.794353 -0.229251 3.656594 -3.397231 0.101994 6.886040 4.018523 10.051007 5.222774 0.000000 0.000000 0.000000 -6.439701 0.125030 -21.896717 5.631254 -1.927912 19.844241 -4.669178 -11.594230 6.384803 0.000000 0.000000 0.000000 6.729141 -0.840440 6.776656 -5.030369 2.339858 -0.664435 -2.613184 6.400875 7.445922 8.427487 -1.071051 -22.650083 0.000000 0.000000 0.000000 -26.890220 -18.533957 2.517716 -31.550168 -10.496727 0.461018 -45.980684 -64.794676 29.219534 0.000000 0.000000 0.000000 31.300849 4.361321 7.201055 40.679704 17.220486 -1.057991 31.964020 71.055328 30.978668 0.000000 0.000000 0.000000 
0.179263 0.938779 -0.393477 -1.348558 20.141324 0.479486 5.462194 -0.318242 0.229192 1.433970 -0.690172 8.521080 -4.092532 -5.910895 3.094838 0.000000 0.000000 0.000000 -5.157247 0.262045 -21.399610 5.815436 -3.089870 26.909174 -1.696033 -5.449286 9.134665 0.000000 0.000000 0.000000 6.999300 -0.892394 6.605338 -4.555969 2.076506 -0.281659 -3.867239 6.743477 6.611396 8.736024 -1.082878 -22.055676 0.000000 0.000000 0.000000 -25.283323 -18.191531 1.613508 -30.908223 -8.337695 0.188178 -49.620171 -65.252060 31.322155 0.000000 0.000000 0.000000 31.602897 2.035199 6.400033 41.477911 15.852918 -1.621466 34.045150 67.120263 30.794763 0.000000 0.000000 0.000000 
0.180048 0.939275 -0.418049 -1.293817 23.020307 1.283736 4.987275 -0.408553 -2.503964 5.377199 -1.471168 9.633319 -8.661481 -18.370846 0.726353 0.000000 0.000000 0.000000 -3.301374 0.553300 -20.169008 5.107351 -3.995277 32.066304 5.338051 4.814211 19.374540 0.000000 0.000000 0.000000 6.727673 -0.847502 6.137614 -4.897268 2.154398 0.292702 -3.591261 6.384838 6.098829 8.008869 -0.922182 -20.106260 0.000000 0.000000 0.000000 -23.327118 -16.687207 0.650047 -30.345245 -7.839917 0.120573 -50.991008 -66.676913 32.604443 0.000000 0.000000 0.000000 30.630392 0.741173 5.707295 43.000325 14.129462 -2.128966 31.479025 64.772244 28.126723 0.000000 0.000000 0.000000 
0.180101 0.938397 -0.440804 -0.735992 27.335728 1.857553 4.560679 -0.534181 -4.998956 5.098043 -1.381670 9.273195 -10.574454 -22.125295 1.461249 0.000000 0.000000 0.000000 -1.688215 0.726927 -17.642585 3.656432 -4.649583 35.127571 10.607161 12.002682 22.764643 0.000000 0.000000 0.000000 6.624028 -0.853638 5.997873 -4.611333 1.921968 0.829183 -3.781356 5.700535 5.919082 6.733668 -0.114785 -19.600508 0.000000 0.000000 0.000000 -24.132331 -16.536510 -0.143464 -27.005796 -6.507561 0.074759 -52.611925 -67.904651 34.659587 0.000000 0.000000 0.000000 31.289969 0.118929 5.909873 41.863772 13.165972 -2.623375 31.174044 62.348997 26.603363 0.000000 0.000000 0.000000 
